<svg width="15" height="15" viewBox="0 0 15 15" fill="none" xmlns="http://www.w3.org/2000/svg">
<g clip-path="url(#clip0_1545_13393)">
<path d="M7.84729 14.25C11.4371 14.25 14.3473 11.3399 14.3473 7.75C14.3473 4.16015 11.4371 1.25 7.84729 1.25C4.25744 1.25 1.34729 4.16015 1.34729 7.75C1.34729 11.3399 4.25744 14.25 7.84729 14.25Z" stroke="#000001" stroke-linecap="round" stroke-linejoin="round"/>
<path d="M1.84729 10.2501H3.59729C4.06142 10.2501 4.50654 10.0657 4.83473 9.73751C5.16292 9.40932 5.34729 8.9642 5.34729 8.50007V7.00007C5.34729 6.53594 5.53166 6.09082 5.85985 5.76263C6.18804 5.43444 6.63316 5.25007 7.09729 5.25007C7.56142 5.25007 8.00654 5.06569 8.33473 4.73751C8.66292 4.40932 8.84729 3.9642 8.84729 3.50007V1.32007" stroke="#000001" stroke-linecap="round" stroke-linejoin="round"/>
<path d="M14.3473 7.65C13.8466 7.39021 13.2914 7.25311 12.7273 7.25H10.5973C10.1332 7.25 9.68804 7.43437 9.35985 7.76256C9.03166 8.09075 8.84729 8.53587 8.84729 9C8.84729 9.46413 9.03166 9.90925 9.35985 10.2374C9.68804 10.5656 10.1332 10.75 10.5973 10.75C10.9288 10.75 11.2468 10.8817 11.4812 11.1161C11.7156 11.3505 11.8473 11.6685 11.8473 12V12.87" stroke="#000001" stroke-linecap="round" stroke-linejoin="round"/>
</g>
<defs>
<clipPath id="clip0_1545_13393">
<rect width="14" height="14" fill="white" transform="translate(0.84729 0.75)"/>
</clipPath>
</defs>
</svg>
